<svg xmlns="http://www.w3.org/2000/svg" xmlns:xlink="http://www.w3.org/1999/xlink" width="500" zoomAndPan="magnify" viewBox="0 0 375 374.999991" height="500" preserveAspectRatio="xMidYMid meet" version="1.0"><defs><g/></defs><g fill="#000000" fill-opacity="1"><g transform="translate(98.298022, 209.857383)"><g><path d="M 118.3125 -53.6875 C 120.5 -53.6875 121.59375 -52.875 121.59375 -51.25 C 121.59375 -50.46875 121.351562 -49.863281 120.875 -49.4375 C 120.40625 -49.019531 119.648438 -48.597656 118.609375 -48.171875 C 117.578125 -47.753906 116.789062 -47.222656 116.25 -46.578125 C 115.71875 -45.929688 115.285156 -44.960938 114.953125 -43.671875 C 114.390625 -41.203125 114.109375 -38.226562 114.109375 -34.75 C 114.109375 -31.269531 114.132812 -28.984375 114.1875 -27.890625 C 114.25 -26.796875 114.335938 -25.691406 114.453125 -24.578125 C 114.734375 -20.472656 115.007812 -17.789062 115.28125 -16.53125 C 115.5625 -15.269531 115.703125 -14.050781 115.703125 -12.875 C 115.703125 -11.695312 114.972656 -10.429688 113.515625 -9.078125 C 112.054688 -7.734375 110.117188 -6.472656 107.703125 -5.296875 C 105.296875 -4.117188 102.519531 -3.066406 99.375 -2.140625 C 96.238281 -1.210938 93.015625 -0.414062 89.703125 0.25 C 82.742188 1.65625 76.347656 2.359375 70.515625 2.359375 C 50.378906 2.359375 34.503906 -3.390625 22.890625 -14.890625 C 12.285156 -25.441406 6.984375 -38.769531 6.984375 -54.875 C 6.984375 -72.988281 12.847656 -87.546875 24.578125 -98.546875 C 36.410156 -109.597656 52.085938 -115.125 71.609375 -115.125 C 86.085938 -115.125 97.617188 -113.382812 106.203125 -109.90625 C 107.878906 -109.175781 109.03125 -108.414062 109.65625 -107.625 C 110.832031 -106.113281 111.515625 -103.757812 111.703125 -100.5625 C 111.898438 -97.363281 112.03125 -95.144531 112.09375 -93.90625 C 112.3125 -91.101562 112.421875 -89.367188 112.421875 -88.703125 C 112.421875 -86.515625 111.664062 -85.421875 110.15625 -85.421875 C 108.695312 -85.421875 107.5625 -86.804688 106.75 -89.578125 C 105.9375 -92.359375 104.320312 -94.984375 101.90625 -97.453125 C 99.5 -99.921875 96.609375 -101.992188 93.234375 -103.671875 C 86.503906 -107.035156 79.039062 -108.71875 70.84375 -108.71875 C 62.65625 -108.71875 55.710938 -107.609375 50.015625 -105.390625 C 44.328125 -103.179688 39.492188 -100 35.515625 -95.84375 C 27.148438 -87.207031 22.96875 -75.539062 22.96875 -60.84375 C 22.96875 -45.132812 27.765625 -31.835938 37.359375 -20.953125 C 41.910156 -15.847656 47.3125 -11.820312 53.5625 -8.875 C 59.820312 -5.925781 66.648438 -4.453125 74.046875 -4.453125 C 85.773438 -4.453125 93.4375 -6.671875 97.03125 -11.109375 C 99.332031 -14.023438 100.484375 -18.007812 100.484375 -23.0625 L 100.484375 -41.3125 C 100.484375 -43.957031 99.863281 -45.585938 98.625 -46.203125 C 97 -47.046875 94.753906 -47.46875 91.890625 -47.46875 C 87.066406 -47.46875 84.65625 -48.53125 84.65625 -50.65625 C 84.65625 -52.789062 86.5625 -53.859375 90.375 -53.859375 L 107.296875 -52.765625 Z M 118.3125 -53.6875 "/></g></g></g><g fill="#545454" fill-opacity="1"><g transform="translate(136.379921, 250.169641)"><g><path d="M 115.921875 -89.0625 C 115.921875 -86.851562 115.160156 -85.75 113.640625 -85.75 C 112.285156 -85.75 111.164062 -87.117188 110.28125 -89.859375 C 109.40625 -92.597656 107.753906 -95.179688 105.328125 -97.609375 C 102.898438 -100.046875 99.992188 -102.082031 96.609375 -103.71875 C 89.546875 -107.164062 81.957031 -108.890625 73.84375 -108.890625 C 65.738281 -108.890625 58.734375 -107.800781 52.828125 -105.625 C 46.929688 -103.445312 41.863281 -100.328125 37.625 -96.265625 C 28.8125 -87.617188 24.40625 -75.953125 24.40625 -61.265625 C 24.40625 -44.992188 29.375 -31.578125 39.3125 -21.015625 C 49.207031 -10.503906 61.863281 -5.25 77.28125 -5.25 C 94.457031 -5.25 107.734375 -13.128906 117.109375 -28.890625 C 117.734375 -29.910156 118.382812 -30.476562 119.0625 -30.59375 C 119.675781 -30.59375 120.296875 -29.914062 120.921875 -28.5625 C 121.546875 -27.207031 121.859375 -25.679688 121.859375 -23.984375 C 121.859375 -21.160156 119.457031 -17.488281 114.65625 -12.96875 C 109.851562 -8.445312 104.019531 -4.800781 97.15625 -2.03125 C 90.289062 0.738281 82.296875 2.125 73.171875 2.125 C 64.046875 2.125 55.398438 0.640625 47.234375 -2.328125 C 39.078125 -5.296875 32.144531 -9.347656 26.4375 -14.484375 C 14.457031 -25.222656 8.46875 -38.640625 8.46875 -54.734375 C 8.46875 -72.929688 14.515625 -87.625 26.609375 -98.8125 C 38.703125 -110.050781 54.601562 -115.671875 74.3125 -115.671875 C 88.550781 -115.671875 100.332031 -113.773438 109.65625 -109.984375 C 111.457031 -109.203125 112.644531 -108.441406 113.21875 -107.703125 C 114.34375 -106.117188 115.003906 -103.757812 115.203125 -100.625 C 115.398438 -97.488281 115.523438 -95.328125 115.578125 -94.140625 C 115.804688 -91.378906 115.921875 -89.6875 115.921875 -89.0625 Z M 115.921875 -89.0625 "/></g></g></g><g fill="#000000" fill-opacity="1"><g transform="translate(130.233555, 249.058546)"><g><path d="M 115.921875 -89.0625 C 115.921875 -86.851562 115.160156 -85.75 113.640625 -85.75 C 112.285156 -85.75 111.164062 -87.117188 110.28125 -89.859375 C 109.40625 -92.597656 107.753906 -95.179688 105.328125 -97.609375 C 102.898438 -100.046875 99.992188 -102.082031 96.609375 -103.71875 C 89.546875 -107.164062 81.957031 -108.890625 73.84375 -108.890625 C 65.738281 -108.890625 58.734375 -107.800781 52.828125 -105.625 C 46.929688 -103.445312 41.863281 -100.328125 37.625 -96.265625 C 28.8125 -87.617188 24.40625 -75.953125 24.40625 -61.265625 C 24.40625 -44.992188 29.375 -31.578125 39.3125 -21.015625 C 49.207031 -10.503906 61.863281 -5.25 77.28125 -5.25 C 94.457031 -5.25 107.734375 -13.128906 117.109375 -28.890625 C 117.734375 -29.910156 118.382812 -30.476562 119.0625 -30.59375 C 119.675781 -30.59375 120.296875 -29.914062 120.921875 -28.5625 C 121.546875 -27.207031 121.859375 -25.679688 121.859375 -23.984375 C 121.859375 -21.160156 119.457031 -17.488281 114.65625 -12.96875 C 109.851562 -8.445312 104.019531 -4.800781 97.15625 -2.03125 C 90.289062 0.738281 82.296875 2.125 73.171875 2.125 C 64.046875 2.125 55.398438 0.640625 47.234375 -2.328125 C 39.078125 -5.296875 32.144531 -9.347656 26.4375 -14.484375 C 14.457031 -25.222656 8.46875 -38.640625 8.46875 -54.734375 C 8.46875 -72.929688 14.515625 -87.625 26.609375 -98.8125 C 38.703125 -110.050781 54.601562 -115.671875 74.3125 -115.671875 C 88.550781 -115.671875 100.332031 -113.773438 109.65625 -109.984375 C 111.457031 -109.203125 112.644531 -108.441406 113.21875 -107.703125 C 114.34375 -106.117188 115.003906 -103.757812 115.203125 -100.625 C 115.398438 -97.488281 115.523438 -95.328125 115.578125 -94.140625 C 115.804688 -91.378906 115.921875 -89.6875 115.921875 -89.0625 Z M 115.921875 -89.0625 "/></g></g></g></svg>